# xmcd CD database file generated by Grip 3.2.0
# 
# Track frame offsets:
#       150
#       35585
#       64749
#       87452
#       123716
#       156289
#       182817
#       209560
#       244710
#       278178
#       299616
#       325307
# 
# Disc length: 4652 seconds
# 
# Revision: 1
# Processed by: cddbd v1.5.2PL0 Copyright (c) Steve Scherf et al.
# Submitted via: Grip 3.2.0
# 
DISCID=c1122a0c
DTITLE=Mike Murley - The Melody Lingers On
DYEAR=2006
DGENRE=Jazz
TTITLE0=The Shadow of Your Smile (Webster - Mandel)
TTITLE1=By Myself (Dietz - Schwartz)
TTITLE2=You Can't Go Home Again (Sebesky)
TTITLE3=No Regrets (Murley)
TTITLE4=You Don't Know What Love Is (Raye - DePaul)
TTITLE5=Never Will I Marry (Loesser)
TTITLE6=I Remember You (Mercer - Schertzinger)
TTITLE7=Theme from "The Getaway" (Jones)
TTITLE8=Stanstill (Murley)
TTITLE9=Embraceable You (Gershwin /Gershwin)
TTITLE10=I've Never Been in Love Before (Loesser)
TTITLE11=Nest of the Loon (Murley)
EXTD=YEAR: 2006
EXTT0=
EXTT1=
EXTT2=
EXTT3=
EXTT4=
EXTT5=
EXTT6=
EXTT7=
EXTT8=
EXTT9=
EXTT10=
EXTT11=
PLAYORDER=
